<svg width="92.799988" height="64.000000" viewBox="0 0 92.8 64" fill="none" xmlns="http://www.w3.org/2000/svg" xmlns:xlink="http://www.w3.org/1999/xlink">
	<desc>
			Created with Pixso.
	</desc>
	<defs/>
	<rect id="Payment method icon" rx="8.800000" width="91.200005" height="62.400002" transform="translate(0.800000 0.800000)" fill="#5A31F4" fill-opacity="1.000000"/>
	<path id="Shop Pay" d="M51.38 29.26C51.38 33.25 48.58 36.1 44.68 36.1L40.99 36.1C40.95 36.1 40.91 36.1 40.88 36.12C40.84 36.14 40.8 36.16 40.77 36.19C40.75 36.22 40.72 36.25 40.71 36.29C40.69 36.33 40.68 36.37 40.68 36.41L40.68 41.65C40.68 41.73 40.65 41.81 40.59 41.87C40.54 41.93 40.46 41.96 40.38 41.96L37.8 41.96C37.74 41.96 37.68 41.94 37.63 41.91C37.58 41.87 37.54 41.82 37.51 41.77C37.5 41.73 37.49 41.69 37.49 41.65L37.49 22.73C37.49 22.69 37.5 22.65 37.51 22.61C37.53 22.57 37.55 22.54 37.58 22.51C37.61 22.48 37.64 22.46 37.68 22.44C37.72 22.43 37.76 22.42 37.8 22.42L44.69 22.42C48.58 22.41 51.38 25.26 51.38 29.26ZM48.17 29.26C48.17 26.96 46.6 25.29 44.48 25.29L40.99 25.29C40.95 25.29 40.91 25.3 40.88 25.31C40.84 25.33 40.8 25.35 40.77 25.38C40.75 25.41 40.72 25.44 40.71 25.48C40.69 25.52 40.68 25.56 40.68 25.6L40.68 32.9C40.68 32.98 40.72 33.06 40.78 33.12C40.83 33.18 40.91 33.21 40.99 33.21L44.48 33.21C46.6 33.22 48.17 31.55 48.17 29.26ZM52.15 38.33C52.12 37.72 52.25 37.11 52.51 36.56C52.78 36.01 53.18 35.53 53.68 35.18C54.69 34.42 56.26 34.03 58.57 33.95L61.02 33.86L61.02 33.14C61.02 31.68 60.05 31.07 58.49 31.07C56.92 31.07 55.93 31.62 55.7 32.53C55.68 32.59 55.64 32.65 55.59 32.69C55.54 32.73 55.47 32.75 55.41 32.75L52.98 32.75C52.93 32.75 52.89 32.74 52.85 32.72C52.81 32.7 52.77 32.68 52.74 32.64C52.71 32.61 52.69 32.57 52.68 32.53C52.67 32.48 52.66 32.44 52.67 32.39C53.03 30.25 54.82 28.61 58.6 28.61C62.62 28.61 64.07 30.49 64.07 34.06L64.07 41.65C64.07 41.73 64.04 41.81 63.98 41.87C63.92 41.93 63.84 41.96 63.76 41.96L61.31 41.96C61.23 41.96 61.15 41.93 61.09 41.87C61.06 41.84 61.04 41.81 61.02 41.77C61.01 41.73 61 41.69 61 41.65L61 41.08C61 41.04 60.99 40.99 60.96 40.95C60.94 40.91 60.9 40.88 60.86 40.86C60.81 40.85 60.76 40.84 60.72 40.85C60.67 40.86 60.63 40.89 60.6 40.92C59.86 41.72 58.68 42.3 56.78 42.3C53.99 42.3 52.15 40.84 52.15 38.33ZM61.02 36.68L61.02 36.1L57.84 36.26C56.17 36.35 55.19 37.05 55.19 38.22C55.19 39.28 56.08 39.87 57.65 39.87C59.77 39.87 61.02 38.72 61.02 36.68ZM66.53 47.69L66.53 45.5C66.53 45.45 66.54 45.4 66.56 45.36C66.58 45.32 66.61 45.28 66.64 45.25C66.68 45.23 66.72 45.2 66.76 45.19C66.81 45.18 66.86 45.18 66.9 45.19C67.28 45.26 67.66 45.3 68.04 45.3C68.7 45.33 69.35 45.14 69.88 44.76C70.42 44.38 70.81 43.83 71 43.2L71.16 42.69C71.18 42.63 71.18 42.55 71.16 42.48L66.06 29.39C66.04 29.34 66.03 29.29 66.04 29.24C66.05 29.19 66.06 29.14 66.09 29.1C66.12 29.06 66.16 29.02 66.2 29C66.25 28.97 66.3 28.96 66.35 28.96L68.82 28.96C68.88 28.96 68.95 28.98 69 29.02C69.05 29.05 69.09 29.1 69.11 29.16L72.57 38.4C72.6 38.46 72.64 38.51 72.69 38.55C72.74 38.59 72.81 38.61 72.87 38.61C72.94 38.61 73 38.59 73.05 38.55C73.11 38.51 73.15 38.46 73.17 38.4L76.17 29.19C76.2 29.13 76.24 29.07 76.29 29.03C76.34 28.99 76.41 28.97 76.47 28.97L79.03 28.97C79.08 28.97 79.13 28.99 79.18 29.01C79.22 29.03 79.26 29.07 79.29 29.11C79.32 29.15 79.34 29.2 79.35 29.25C79.35 29.3 79.35 29.36 79.33 29.4L73.87 43.94C72.62 47.32 70.47 48.19 68.1 48.19C67.65 48.2 67.2 48.15 66.76 48.03C66.69 48.01 66.63 47.97 66.58 47.9C66.54 47.84 66.52 47.77 66.53 47.69ZM20.93 21.33C17.68 21.31 14.55 22.53 12.17 24.74C12.07 24.84 12.01 24.96 12 25.1C11.98 25.24 12.02 25.38 12.11 25.49L13.58 27.49C13.62 27.56 13.69 27.62 13.76 27.66C13.83 27.7 13.91 27.72 13.99 27.73C14.07 27.73 14.15 27.72 14.23 27.69C14.31 27.66 14.38 27.62 14.43 27.56C15.29 26.71 16.3 26.03 17.42 25.58C18.54 25.12 19.74 24.89 20.94 24.9C25.98 24.9 28.61 28.7 28.61 32.44C28.61 36.51 25.85 39.38 21.87 39.43C18.8 39.43 16.49 37.4 16.49 34.71C16.49 34.03 16.65 33.36 16.94 32.75C17.23 32.13 17.66 31.59 18.19 31.17C18.3 31.07 18.37 30.94 18.38 30.79C18.4 30.65 18.35 30.51 18.26 30.39L16.72 28.44C16.67 28.38 16.61 28.33 16.55 28.3C16.48 28.26 16.41 28.24 16.33 28.23C16.26 28.22 16.18 28.23 16.11 28.25C16.04 28.27 15.97 28.31 15.91 28.36C14.97 29.12 14.2 30.09 13.67 31.19C13.15 32.29 12.87 33.49 12.87 34.71C12.87 39.34 16.81 42.97 21.85 43L21.91 43C27.9 42.92 32.22 38.49 32.22 32.43C32.22 27.05 28.26 21.33 20.93 21.33L20.93 21.33Z" fill="#FFFFFF" fill-opacity="1.000000" fill-rule="nonzero"/>
	<rect id="Payment method icon" rx="8.800000" width="91.200005" height="62.400002" transform="translate(0.800000 0.800000)" stroke="#F2F4F7" stroke-opacity="1.000000" stroke-width="1.600000"/>
</svg>
