<svg width="92.800003" height="64.000000" viewBox="0 0 92.8 64" fill="none" xmlns="http://www.w3.org/2000/svg" xmlns:xlink="http://www.w3.org/1999/xlink">
	<desc>
			Created with Pixso.
	</desc>
	<defs/>
	<rect id="Payment method icon" rx="8.800000" width="91.200005" height="62.400002" transform="translate(0.800000 0.800000)" fill="#FFFFFF" fill-opacity="1.000000"/>
	<path id="visa-logo" d="M53.0775 25.9566C52.009 25.9566 51.0931 26.5794 50.9405 27.6685C50.9405 30.0005 58.1122 30.3105 58.1122 35.6C58.1122 39.8003 54.604 42.5987 48.9587 42.445C47.127 42.445 45.1452 42.1323 43.3134 41.3558L44.2293 36.9992C45.9058 37.7783 47.7375 38.2448 49.5693 38.2448C51.0931 38.2448 52.6196 37.6219 52.6196 36.2228C52.7722 35.29 52.009 34.6672 50.0273 33.7344C48.1955 32.799 45.6005 31.2461 45.6005 28.2886C45.6005 24.4011 49.264 21.6 54.2987 21.6C55.8225 21.6 57.5016 21.9127 59.0281 22.5355L58.1122 26.8894C56.5858 26.113 54.7567 25.8002 53.0775 25.9566ZM23.1747 42.2887L28.6674 42.2887L36.905 22.0664L31.565 22.0664L26.075 35.7564L23.938 24.0884C23.7853 23.0019 22.8694 22.0664 21.6483 22.0664L12.8 22.0664L12.8 22.6891C14.6318 23.0019 16.3109 23.6219 17.8347 24.4011C18.4453 24.7111 18.8604 25.369 19.0559 26.113L23.1747 42.2887ZM39.9579 42.2887L34.7706 42.2887L39.0421 22.0664L44.2294 22.0664L39.9579 42.2887ZM76.2666 42.2887L72.1478 22.0664L67.7237 22.0664C66.8078 22.0664 65.8919 22.6891 65.5866 23.6219L57.9596 42.2887L63.2996 42.2887L64.3654 39.3339L70.9266 39.3339L71.5372 42.2887L76.2666 42.2887ZM70.0108 35.1337L68.487 27.5122L65.7394 35.1337L70.0108 35.1337Z" clip-rule="evenodd" fill="#172B85" fill-opacity="1.000000" fill-rule="evenodd"/>
	<rect id="Payment method icon" rx="8.800000" width="91.200005" height="62.400002" transform="translate(0.800000 0.800000)" stroke="#F2F4F7" stroke-opacity="1.000000" stroke-width="1.600000"/>
</svg>
