<svg width="92.800003" height="64.000000" viewBox="0 0 92.8 64" fill="none" xmlns="http://www.w3.org/2000/svg" xmlns:xlink="http://www.w3.org/1999/xlink">
	<desc>
			Created with Pixso.
	</desc>
	<defs/>
	<rect id="Payment method icon" rx="8.800000" width="91.200005" height="62.400002" transform="translate(0.800000 0.800000)" fill="#FFFFFF" fill-opacity="1.000000"/>
	<mask id="mask_24_1959" fill="white">
		<path id="Left" d="M34.0818 13.4133C24.0955 13.4133 15.9999 21.4125 15.9999 31.28C15.9999 41.1475 24.0955 49.1467 34.0818 49.1467C38.5573 49.1467 42.6531 47.54 45.8106 44.8785C48.968 47.54 53.0638 49.1467 57.5394 49.1467C67.5257 49.1467 75.6212 41.1475 75.6212 31.28C75.6212 21.4125 67.5257 13.4133 57.5394 13.4133C53.0638 13.4133 48.968 15.02 45.8106 17.6815C42.6531 15.02 38.5573 13.4133 34.0818 13.4133Z" clip-rule="evenodd" fill="" fill-opacity="1.000000" fill-rule="evenodd"/>
	</mask>
	<path id="Left" d="M34.0818 13.4133C24.0955 13.4133 15.9999 21.4125 15.9999 31.28C15.9999 41.1475 24.0955 49.1467 34.0818 49.1467C38.5573 49.1467 42.6531 47.54 45.8106 44.8785C48.968 47.54 53.0638 49.1467 57.5394 49.1467C67.5257 49.1467 75.6212 41.1475 75.6212 31.28C75.6212 21.4125 67.5257 13.4133 57.5394 13.4133C53.0638 13.4133 48.968 15.02 45.8106 17.6815C42.6531 15.02 38.5573 13.4133 34.0818 13.4133Z" clip-rule="evenodd" fill="#ED0006" fill-opacity="1.000000" fill-rule="evenodd" mask="url(#mask_24_1959)"/>
	<path id="Left" d="" fill="#979797" fill-opacity="0.000000" fill-rule="nonzero"/>
	<mask id="mask_24_1962" fill="white">
		<path id="Right" d="M45.8107 44.8785C48.9681 47.54 53.0639 49.1467 57.5394 49.1467C67.5258 49.1467 75.6213 41.1475 75.6213 31.28C75.6213 21.4125 67.5258 13.4133 57.5394 13.4133C53.0639 13.4133 48.9681 15.02 45.8107 17.6815C49.6985 20.9585 52.1637 25.8348 52.1637 31.28C52.1637 36.7252 49.6985 41.6015 45.8107 44.8785Z" clip-rule="evenodd" fill="" fill-opacity="1.000000" fill-rule="evenodd"/>
	</mask>
	<path id="Right" d="M45.8107 44.8785C48.9681 47.54 53.0639 49.1467 57.5394 49.1467C67.5258 49.1467 75.6213 41.1475 75.6213 31.28C75.6213 21.4125 67.5258 13.4133 57.5394 13.4133C53.0639 13.4133 48.9681 15.02 45.8107 17.6815C49.6985 20.9585 52.1637 25.8348 52.1637 31.28C52.1637 36.7252 49.6985 41.6015 45.8107 44.8785Z" clip-rule="evenodd" fill="#F9A000" fill-opacity="1.000000" fill-rule="evenodd" mask="url(#mask_24_1962)"/>
	<path id="Right" d="" fill="#979797" fill-opacity="0.000000" fill-rule="nonzero"/>
	<path id="Middle" d="M45.8107 17.6814C49.6985 20.9585 52.1637 25.8347 52.1637 31.2798C52.1637 36.725 49.6985 41.6013 45.8107 44.8784C41.9229 41.6013 39.4577 36.725 39.4577 31.2798C39.4577 25.8347 41.9229 20.9585 45.8107 17.6814Z" clip-rule="evenodd" fill="#FF5E00" fill-opacity="1.000000" fill-rule="evenodd"/>
	<rect id="Payment method icon" rx="8.800000" width="91.200005" height="62.400002" transform="translate(0.800000 0.800000)" stroke="#F2F4F7" stroke-opacity="1.000000" stroke-width="1.600000"/>
</svg>
