<svg width="92.800003" height="64.000000" viewBox="0 0 92.8 64" fill="none" xmlns="http://www.w3.org/2000/svg" xmlns:xlink="http://www.w3.org/1999/xlink">
	<desc>
			Created with Pixso.
	</desc>
	<defs/>
	<rect id="Payment method icon" rx="8.800000" width="91.200005" height="62.400002" transform="translate(0.800000 0.800000)" fill="#FFFFFF" fill-opacity="1.000000"/>
	<ellipse id="Ellipse 1" cx="45.159996" cy="31.826721" rx="21.159998" ry="21.159983" fill="#6481E7" fill-opacity="1.000000"/>
	<path id="Vector" d="M35.91 32.68L45.4 38.29L45.4 16.93L35.91 32.68Z" fill="#FFFFFF" fill-opacity="1.000000" fill-rule="evenodd"/>
	<path id="Vector" d="M45.4 16.93L45.4 38.29L54.89 32.68L45.4 16.93Z" fill="#C1CCF5" fill-opacity="1.000000" fill-rule="evenodd"/>
	<path id="Vector" d="M45.4 28.37L35.91 32.68L45.4 38.29L54.89 32.68L45.4 28.37Z" fill="#8299EC" fill-opacity="1.000000" fill-rule="evenodd"/>
	<path id="Vector" d="M45.4 28.37L35.91 32.68L45.4 38.29L45.4 28.37Z" fill="#C1CCF5" fill-opacity="1.000000" fill-rule="evenodd"/>
	<path id="Vector" d="M35.91 34.48L45.4 47.86L45.4 40.09L35.91 34.48Z" fill="#FFFFFF" fill-opacity="1.000000" fill-rule="evenodd"/>
	<path id="Vector" d="M45.4 40.09L45.4 47.86L54.9 34.48L45.4 40.09Z" fill="#C1CCF5" fill-opacity="1.000000" fill-rule="evenodd"/>
	<rect id="Payment method icon" rx="8.800000" width="91.200005" height="62.400002" transform="translate(0.800000 0.800000)" stroke="#F2F4F7" stroke-opacity="1.000000" stroke-width="1.600000"/>
</svg>
