<svg width="92.800003" height="64.000000" viewBox="0 0 92.8 64" fill="none" xmlns="http://www.w3.org/2000/svg" xmlns:xlink="http://www.w3.org/1999/xlink">
	<desc>
			Created with Pixso.
	</desc>
	<defs/>
	<rect id="Payment method icon" rx="8.800000" width="91.200005" height="62.400002" transform="translate(0.800000 0.800000)" fill="#FFFFFF" fill-opacity="1.000000"/>
	<path id="ApplePay" d="M22.3043 23.8212C23.5644 23.9269 24.8245 23.1868 25.6121 22.2484C26.3866 21.2836 26.8985 19.9883 26.7673 18.6666C25.6515 18.7195 24.2732 19.4067 23.4856 20.3716C22.7637 21.2042 22.1467 22.5524 22.3043 23.8212ZM37.2947 40.8445L37.2947 20.2395L44.9737 20.2395C48.9379 20.2395 51.7076 22.9886 51.7076 27.0065C51.7076 31.0244 48.8853 33.7999 44.8687 33.7999L40.4713 33.7999L40.4713 40.8445L37.2947 40.8445ZM40.471 22.9356L44.1333 22.9356C46.8898 22.9356 48.465 24.4159 48.465 27.0196C48.465 29.6234 46.8898 31.1168 44.1202 31.1168L40.471 31.1168L40.471 22.9356ZM26.754 24.0723C25.6438 24.0079 24.6309 24.4084 23.8127 24.7319C23.2861 24.9401 22.8402 25.1164 22.501 25.1164C22.1203 25.1164 21.6561 24.9307 21.1348 24.7222C20.4517 24.449 19.6708 24.1366 18.8519 24.1516C16.9748 24.178 15.229 25.2486 14.2707 26.9536C12.3018 30.3635 13.7588 35.4123 15.6621 38.1878C16.5941 39.5624 17.7099 41.0691 19.18 41.0162C20.5714 40.9633 21.1227 40.1042 22.8029 40.1042C23.6709 40.1042 24.2216 40.3439 24.7502 40.5739C25.2528 40.7926 25.7355 41.0027 26.4521 40.9897C27.9748 40.9633 28.933 39.6152 29.865 38.2407C30.9282 36.6811 31.3614 35.1612 31.3876 35.0818C31.3614 35.0554 28.4473 33.932 28.4211 30.5485C28.3963 27.8824 30.4593 26.5316 30.7841 26.3189C30.8038 26.306 30.8172 26.2972 30.8232 26.2927C29.5106 24.3366 27.4628 24.1251 26.754 24.0723ZM62.1958 38.3729C61.3557 39.9854 59.5049 41.0031 57.5096 41.0031C54.5562 41.0031 52.4953 39.232 52.4953 36.5622C52.4953 33.9188 54.4905 32.3989 58.1791 32.1742L62.1433 31.9363L62.1433 30.7997C62.1433 29.1212 61.0538 28.2092 59.1111 28.2092C57.5096 28.2092 56.3414 29.0418 56.1051 30.3107L53.2435 30.3107C53.3354 27.6409 55.8294 25.698 59.2029 25.698C62.839 25.698 65.2017 27.6144 65.2017 30.5882L65.2017 40.8444L62.2614 40.8444L62.2614 38.3729L62.1958 38.3729ZM74.9546 41.6506C73.6813 45.2589 72.2243 46.4484 69.1264 46.4484C68.8901 46.4484 68.1025 46.4219 67.9188 46.369L67.9188 43.8975C68.1157 43.924 68.6013 43.9504 68.8508 43.9504C70.2553 43.9504 71.0429 43.3556 71.5286 41.8093L71.8173 40.8973L66.4355 25.8962L69.7565 25.8962L73.4975 38.0689L73.5632 38.0689L77.3042 25.8962L80.5333 25.8962L74.9546 41.6506ZM58.3626 38.558C56.6693 38.558 55.593 37.7385 55.593 36.4829C55.593 35.1877 56.6299 34.4343 58.612 34.3154L62.1431 34.0907L62.1431 35.2538C62.1431 37.1834 60.5154 38.558 58.3626 38.558Z" clip-rule="evenodd" fill="#000000" fill-opacity="1.000000" fill-rule="evenodd"/>
	<rect id="Payment method icon" rx="8.800000" width="91.200005" height="62.400002" transform="translate(0.800000 0.800000)" stroke="#F2F4F7" stroke-opacity="1.000000" stroke-width="1.600000"/>
</svg>
