<svg width="92.799988" height="64.000000" viewBox="0 0 92.8 64" fill="none" xmlns="http://www.w3.org/2000/svg" xmlns:xlink="http://www.w3.org/1999/xlink">
	<desc>
			Created with Pixso.
	</desc>
	<defs/>
	<rect id="Payment method icon" rx="8.800000" width="91.200005" height="62.400002" transform="translate(0.800000 0.800000)" fill="#FFFFFF" fill-opacity="1.000000"/>
	<path id="Union" d="M46.219 13.2158L24.6438 13.2158L24.6438 50.6281L46.219 50.6281C58.6392 50.6281 66.5138 44.3597 66.5138 31.889C66.5138 21.4637 60.8799 13.2158 46.219 13.2158ZM26.6923 48.5167L26.6923 15.4592L46.2188 15.4592C57.4866 15.4592 64.4009 20.7379 64.4009 31.955C64.4009 42.8421 57.9988 48.5167 46.2188 48.5167L26.6923 48.5167ZM32.4544 32.5488C34.6112 32.5488 36.3597 30.7467 36.3597 28.5238C36.3597 26.3008 34.6112 24.4988 32.4544 24.4988C30.2975 24.4988 28.5491 26.3008 28.5491 28.5238C28.5491 30.7467 30.2975 32.5488 32.4544 32.5488ZM29.3175 34.2643L35.5916 34.2643L35.5916 45.7454L29.3175 45.7454L29.3175 34.2643Z" clip-rule="evenodd" fill="#000000" fill-opacity="1.000000" fill-rule="evenodd"/>
	<path id="Shape" d="M57.2948 24.8287L59.0874 24.8287L59.0874 30.3713L61.7123 30.3713C61.0081 20.2759 53.2614 18.0325 46.2191 18.0325L38.7286 18.0325L38.7286 24.8287L39.817 24.8287C41.8656 24.8287 43.082 26.2144 43.082 28.5237C43.082 30.8331 41.8656 32.2188 39.881 32.2188L38.7286 32.2188L38.7286 45.7452L46.2191 45.7452C57.6789 45.7452 61.5842 40.2687 61.7763 32.2188L57.2948 32.2188L57.2948 24.8287ZM48.6519 32.2188L48.6519 30.3713L46.027 30.3713L46.027 29.3815L48.3958 29.3815L48.3958 27.534L45.963 27.534L45.963 26.6762L48.5239 26.6762L48.5239 24.8287L44.1704 24.8287L44.1704 32.2188L48.6519 32.2188ZM49.42 32.2188L51.5967 24.8287L54.1576 24.8287L56.3343 32.2188L54.4777 32.2188L54.0935 30.8331L51.7247 30.8331L51.3406 32.2188L49.42 32.2188ZM38.7286 30.3713L38.7286 26.6762L39.817 26.6762C40.5212 26.6762 41.2894 26.8742 41.2894 28.5237C41.2894 30.1733 40.5852 30.3713 39.817 30.3713L38.7286 30.3713ZM52.257 28.9196L53.5175 28.9196L52.9413 26.8741L52.8773 26.8741L52.257 28.9196ZM52.257 28.9196L52.237 28.9196L52.237 28.9856L52.257 28.9196Z" clip-rule="evenodd" fill="#D50072" fill-opacity="1.000000" fill-rule="evenodd"/>
	<rect id="Payment method icon" rx="8.800000" width="91.200005" height="62.400002" transform="translate(0.800000 0.800000)" stroke="#F2F4F7" stroke-opacity="1.000000" stroke-width="1.600000"/>
</svg>
