<svg width="92.799988" height="64.000000" viewBox="0 0 92.8 64" fill="none" xmlns="http://www.w3.org/2000/svg" xmlns:xlink="http://www.w3.org/1999/xlink">
	<desc>
			Created with Pixso.
	</desc>
	<defs/>
	<rect id="Payment method icon" rx="8.800000" width="91.200005" height="62.400002" transform="translate(0.800000 0.800000)" fill="#F884A1" fill-opacity="1.000000"/>
	<path id="Sofort" d="M52.7576 25.1616L55.2638 12.315C55.5654 10.8738 54.7361 9.42151 53.3469 9.00024C51.7961 8.60114 50.2345 9.53235 49.836 11.1066L47.5653 19.1098L45.7752 11.2286C45.6352 10.4969 45.2044 9.84277 44.5906 9.42151C43.9767 9.00024 43.2121 8.85614 42.4905 9.01135C41.0689 9.32178 40.1428 11.0291 40.4982 12.5811L41.5544 21.5089C40.6368 20.5673 39.5652 20.2772 38.3234 21.0178L38.1618 21.1286C37.0302 21.9219 36.7999 23.5431 37.527 25.0197C36.9251 25.0546 36.3367 25.3129 35.8893 25.7847L35.7816 25.9067C34.737 27.0153 34.9416 28.8889 36.2447 30.2303L37.3032 31.3163C37.4221 36.3368 41.3893 39.8532 46.0668 39.8532C46.1222 39.8532 46.1757 39.8454 46.2263 39.8307C52.5621 39.7654 55.3466 35.8809 55.8238 29.9864C55.9745 28.1239 55.6407 26.849 54.9407 26.084C54.553 25.6628 54.1437 25.4633 53.8314 25.4189L52.7576 25.1616ZM45.841 38.6528C45.8723 38.6475 45.9045 38.6448 45.9374 38.6448C51.7745 38.7002 54.2299 35.33 54.6714 29.8977C54.8007 28.3456 54.5422 27.4033 54.0899 26.9044C53.9714 26.7825 53.853 26.6938 53.7453 26.6495L53.616 26.6051L46.8313 24.9755C46.799 24.9644 46.7236 24.9532 46.6159 24.9311C46.2497 24.8646 45.8728 24.8535 45.5282 24.9311C45.0005 25.053 44.6666 25.3524 44.4943 25.9288C44.2651 26.7153 44.2843 27.3158 44.77 27.7968C44.8922 27.8431 44.9913 27.9266 45.0578 28.0311C45.3972 28.2621 45.8739 28.4636 46.519 28.645L50.9883 29.676C51.7314 29.8534 51.4944 30.9952 50.7514 30.8511L50.6114 30.829C50.0514 30.7736 49.416 30.8179 48.8344 31.0396C47.7467 31.4609 47.0682 32.4254 46.9821 34.2214C46.9605 34.554 46.6913 34.7979 46.3682 34.7867C46.0451 34.7646 45.7974 34.4874 45.8189 34.1548C45.9051 32.1704 46.659 30.8733 47.8651 30.1749L46.239 29.7869C45.6782 29.6304 45.2054 29.4455 44.8123 29.2346C44.6236 29.5391 44.3777 29.8035 44.085 30.0087L43.9558 30.0974C43.8816 30.149 43.8057 30.1962 43.7285 30.239C44.2507 31.2446 44.1129 32.5158 43.3095 33.3788L43.191 33.5007C42.1787 34.5651 40.5309 34.5872 39.4863 33.5562L38.6156 32.6628C39.3106 36.1776 42.3032 38.5555 45.841 38.6528ZM43.8822 28.5463C43.7761 28.7365 43.6282 28.9018 43.4496 29.022L43.3204 29.0996C42.6527 29.5652 41.748 29.3878 41.2957 28.7005L38.7542 24.8092C38.0649 23.7228 38.1511 22.592 38.8188 22.1153L38.9372 22.0266C39.7988 21.5166 40.5203 21.9047 41.2634 23.0244L41.869 23.9547C41.8954 24.015 41.9314 24.0698 41.9749 24.1174L43.2606 26.0926C43.0858 27.0413 43.2438 27.8734 43.8822 28.5463ZM51.6235 24.8899L47.122 23.8114C47.079 23.8003 46.9713 23.767 46.8205 23.7449C46.3143 23.6562 45.7867 23.6451 45.2697 23.756C44.6524 23.8997 44.1353 24.219 43.7768 24.7314L42.9558 23.4702L41.6505 12.3926L41.6397 12.3261C41.4136 11.3949 41.9736 10.3528 42.7274 10.1865C43.1475 10.0978 43.589 10.1754 43.9444 10.4193C44.2998 10.6632 44.5475 11.0401 44.6336 11.4725L46.9176 21.5143C46.9295 21.7648 47.0893 21.9893 47.3375 22.0598C47.6498 22.1485 47.9729 21.9711 48.0591 21.6496L50.956 11.4281C51.2037 10.4858 52.1299 9.92041 53.0345 10.1532C53.8099 10.3971 54.2946 11.2286 54.1223 12.0711L51.6235 24.8899ZM40.3265 29.3768C40.847 30.1594 41.6899 30.5743 42.5421 30.5588C43.0069 31.1394 42.982 31.9983 42.4587 32.5474L42.351 32.6693C41.791 33.2568 40.8756 33.2679 40.3048 32.6915L37.0739 29.3989C36.1801 28.4787 36.0616 27.3479 36.6216 26.7493L36.7293 26.6273C37.1763 26.1458 37.9042 26.0877 38.4288 26.4631L40.3265 29.3768ZM29.1906 54.2209C31.0214 54.2209 32.4214 52.9572 32.4214 51.1058C32.4214 49.3874 31.2368 48.6446 29.7829 48.2012C28.8568 47.924 28.2752 47.7134 28.2752 47.0371C28.2752 46.4717 28.6737 46.0283 29.3091 46.0283C29.8475 46.0283 30.246 46.3497 30.5368 46.8375L32.0553 45.8509C31.5814 44.7755 30.5153 44.2212 29.3629 44.2212C27.5321 44.2212 26.369 45.5737 26.369 47.1479C26.369 48.4007 27.1013 49.3652 28.8998 49.9084C29.8799 50.1967 30.5045 50.3962 30.5045 51.1945C30.5045 51.9483 29.9768 52.4139 29.2122 52.4139C28.3937 52.4139 27.769 51.8707 27.3921 51.3718L26.1321 52.6689C26.8105 53.6223 27.9091 54.2209 29.1906 54.2209ZM44.6337 46.1169L44.6337 44.3431L44.3644 44.3431C42.1351 44.3431 41.0366 45.873 41.0366 47.669L41.0366 54.0436L42.8675 54.0436L42.8675 51.2499C42.8675 50.3186 43.5675 49.6534 44.5798 49.6313L44.5798 47.8353C43.8582 47.8353 43.2767 48.0571 42.8675 48.5005L42.8675 47.7799C42.8675 46.6047 43.6105 46.0726 44.6337 46.1169ZM59.5818 50.618L59.5818 48.9772C59.991 49.4207 60.5618 49.6424 61.2941 49.6424L61.2941 47.8575C60.3033 47.8353 59.5818 47.1479 59.5818 46.2389L59.5818 45.1857L57.751 45.1857L57.751 50.7288C57.751 52.5248 58.8387 54.0547 61.0787 54.0547L61.348 54.0547L61.348 52.2809C60.3249 52.3141 59.5818 51.7931 59.5818 50.618ZM36.5889 54.2209C38.5274 54.2209 40.0997 52.6246 40.0997 50.6844C40.0997 48.7444 38.5274 47.1479 36.5889 47.1479C34.6504 47.1479 33.078 48.7444 33.078 50.6844C33.078 52.6246 34.6504 54.2209 36.5889 54.2209ZM48.6292 54.2209C50.5677 54.2209 52.14 52.6246 52.14 50.6844C52.14 48.7444 50.5677 47.1479 48.6292 47.1479C46.6906 47.1479 45.1183 48.7444 45.1183 50.6844C45.1183 52.6246 46.6906 54.2209 48.6292 54.2209ZM54.9077 48.1014L54.9077 47.3364L53.1307 47.3364L53.1307 54.0436L54.9615 54.0436L54.9615 50.9838C54.9615 49.8752 55.597 49.2543 56.6954 49.2543L56.6954 47.2366C55.8662 47.2034 55.2739 47.4916 54.9077 48.1014ZM36.5884 52.447C37.5253 52.447 38.2684 51.6821 38.2684 50.6843C38.2684 49.6866 37.5253 48.9216 36.5884 48.9216C35.6407 48.9216 34.9083 49.6866 34.9083 50.6843C34.9083 51.6932 35.6514 52.447 36.5884 52.447ZM48.629 52.447C49.5767 52.447 50.309 51.6821 50.309 50.6843C50.309 49.6866 49.5659 48.9216 48.629 48.9216C47.692 48.9216 46.949 49.6866 46.949 50.6843C46.949 51.6932 47.692 52.447 48.629 52.447ZM63.5341 54.1544C64.2018 54.1544 64.7618 53.589 64.7618 52.8906C64.7618 52.2032 64.2126 51.6268 63.5341 51.6268C62.8557 51.6268 62.3064 52.1921 62.3064 52.8906C62.3064 53.589 62.8557 54.1544 63.5341 54.1544Z" clip-rule="evenodd" fill="#FFFFFF" fill-opacity="1.000000" fill-rule="evenodd"/>
	<rect id="Payment method icon" rx="8.800000" width="91.200005" height="62.400002" transform="translate(0.800000 0.800000)" stroke="#F2F4F7" stroke-opacity="1.000000" stroke-width="1.600000"/>
</svg>
