<svg width="18.000000" height="18.000000" viewBox="0 0 18 18" fill="none" xmlns="http://www.w3.org/2000/svg" xmlns:xlink="http://www.w3.org/1999/xlink">
	<desc>
			Created with Pixso.
	</desc>
	<defs>
		<clipPath id="clip2_3">
			<rect id="Star" rx="0.000000" width="17.100000" height="17.100000" transform="translate(0.450000 0.450000)" fill="white" fill-opacity="0"/>
		</clipPath>
		<clipPath id="clip2_110">
			<rect id="Star icon" rx="0.000000" width="17.100000" height="17.100000" transform="translate(0.450000 0.450000)" fill="white" fill-opacity="0"/>
		</clipPath>
	</defs>
	<rect id="Star icon" rx="0.000000" width="17.100000" height="17.100000" transform="translate(0.450000 0.450000)" fill="#FFFFFF" fill-opacity="0"/>
	<g clip-path="url(#clip2_110)">
		<path id="Star background" d="M8.58 1.44L6.72 5.91C6.66 6.07 6.51 6.18 6.34 6.19L1.51 6.58C1.11 6.61 0.95 7.11 1.26 7.37L4.93 10.52C5.06 10.63 5.12 10.8 5.08 10.96L3.96 15.67C3.86 16.06 4.29 16.37 4.63 16.16L8.76 13.64C8.9 13.55 9.09 13.55 9.23 13.64L13.36 16.16C13.7 16.37 14.13 16.06 14.03 15.67L12.91 10.96C12.87 10.8 12.93 10.63 13.06 10.52L16.73 7.37C17.04 7.11 16.87 6.61 16.48 6.58L11.65 6.19C11.48 6.18 11.33 6.07 11.27 5.91L9.41 1.44C9.26 1.07 8.73 1.07 8.58 1.44Z" fill="#DEDEDE" fill-opacity="1.000000" fill-rule="evenodd"/>
		<rect id="Star" rx="0.000000" width="17.100000" height="17.100000" transform="translate(0.450000 0.450000)" fill="#FFFFFF" fill-opacity="0"/>
		<g clip-path="url(#clip2_3)">
			<path id="Star" d="M8.58 1.44L6.72 5.91C6.66 6.07 6.51 6.18 6.34 6.19L1.51 6.58C1.11 6.61 0.95 7.11 1.26 7.37L4.93 10.52C5.06 10.63 5.12 10.8 5.08 10.96L3.96 15.67C3.86 16.06 4.29 16.37 4.63 16.16L8.76 13.64C8.9 13.55 9.09 13.55 9.23 13.64L13.36 16.16C13.7 16.37 14.13 16.06 14.03 15.67L12.91 10.96C12.87 10.8 12.93 10.63 13.06 10.52L16.73 7.37C17.04 7.11 16.87 6.61 16.48 6.58L11.65 6.19C11.48 6.18 11.33 6.07 11.27 5.91L9.41 1.44C9.26 1.07 8.73 1.07 8.58 1.44Z" fill="#FFDE2D" fill-opacity="1.000000" fill-rule="evenodd"/>
		</g>
	</g>
</svg>
